<svg width="51" height="50" viewBox="0 0 51 50" fill="none" xmlns="http://www.w3.org/2000/svg">
<path d="M13.6738 43.75H6.38216C5.23633 43.75 4.29883 42.8125 4.29883 41.6667V20.8333C4.29883 19.6875 5.23633 18.75 6.38216 18.75H13.6738C14.8197 18.75 15.7572 19.6875 15.7572 20.8333V41.6667C15.7572 42.8125 14.8197 43.75 13.6738 43.75ZM28.778 6.25H21.4863C20.3405 6.25 19.403 7.1875 19.403 8.33333V41.6667C19.403 42.8125 20.3405 43.75 21.4863 43.75H28.778C29.9238 43.75 30.8613 42.8125 30.8613 41.6667V8.33333C30.8613 7.1875 29.9238 6.25 28.778 6.25ZM43.8822 22.9167H36.5905C35.4447 22.9167 34.5072 23.8542 34.5072 25V41.6667C34.5072 42.8125 35.4447 43.75 36.5905 43.75H43.8822C45.028 43.75 45.9655 42.8125 45.9655 41.6667V25C45.9655 23.8542 45.028 22.9167 43.8822 22.9167Z" fill="white"/>
</svg>
