<svg width="20" height="24" viewBox="0 0 20 24" fill="none" xmlns="http://www.w3.org/2000/svg">
<path fill-rule="evenodd" clip-rule="evenodd" d="M3.66667 0.916504C2.82681 0.916504 2.02136 1.25013 1.4275 1.844C0.83363 2.43786 0.5 3.24332 0.5 4.08317V19.9165C0.5 20.7564 0.83363 21.5618 1.4275 22.1557C2.02136 22.7495 2.82681 23.0832 3.66667 23.0832H5.25C6.08985 23.0832 6.89531 22.7495 7.48917 22.1557C8.08304 21.5618 8.41667 20.7564 8.41667 19.9165V4.08317C8.41667 3.24332 8.08304 2.43786 7.48917 1.844C6.89531 1.25013 6.08985 0.916504 5.25 0.916504H3.66667ZM14.75 0.916504C13.9101 0.916504 13.1047 1.25013 12.5108 1.844C11.917 2.43786 11.5833 3.24332 11.5833 4.08317V19.9165C11.5833 20.7564 11.917 21.5618 12.5108 22.1557C13.1047 22.7495 13.9101 23.0832 14.75 23.0832H16.3333C17.1732 23.0832 17.9786 22.7495 18.5725 22.1557C19.1664 21.5618 19.5 20.7564 19.5 19.9165V4.08317C19.5 3.24332 19.1664 2.43786 18.5725 1.844C17.9786 1.25013 17.1732 0.916504 16.3333 0.916504H14.75Z" fill="black"/>
</svg>
