<svg width="51" height="50" viewBox="0 0 51 50" fill="none" xmlns="http://www.w3.org/2000/svg">
<path d="M25.0439 22.9167C26.1898 22.9167 27.171 22.509 27.9877 21.6937C28.8044 20.8785 29.212 19.8972 29.2106 18.75C29.2092 17.6028 28.8016 16.6222 27.9877 15.8083C27.1738 14.9944 26.1926 14.5861 25.0439 14.5833C23.8953 14.5806 22.9148 14.9889 22.1023 15.8083C21.2898 16.6278 20.8814 17.6083 20.8773 18.75C20.8731 19.8917 21.2814 20.8729 22.1023 21.6937C22.9231 22.5146 23.9037 22.9222 25.0439 22.9167ZM14.6273 43.75V39.5833H22.9606V33.125C21.2592 32.7431 19.7405 32.0229 18.4044 30.9646C17.0682 29.9062 16.087 28.5778 15.4606 26.9792C12.8564 26.6667 10.678 25.5299 8.9252 23.5687C7.17242 21.6076 6.29533 19.3069 6.29395 16.6667V14.5833C6.29395 13.4375 6.70228 12.4569 7.51895 11.6417C8.33561 10.8264 9.31617 10.4181 10.4606 10.4167H14.6273V6.25H35.4606V10.4167H39.6273C40.7731 10.4167 41.7544 10.825 42.571 11.6417C43.3877 12.4583 43.7953 13.4389 43.7939 14.5833V16.6667C43.7939 19.3056 42.9169 21.6062 41.1627 23.5687C39.4085 25.5312 37.2301 26.6681 34.6273 26.9792C34.0023 28.5764 33.0217 29.9049 31.6856 30.9646C30.3495 32.0243 28.8301 32.7444 27.1273 33.125V39.5833H35.4606V43.75H14.6273ZM14.6273 22.5V14.5833H10.4606V16.6667C10.4606 17.9861 10.8426 19.1757 11.6064 20.2354C12.3703 21.2951 13.3773 22.05 14.6273 22.5ZM35.4606 22.5C36.7106 22.0486 37.7176 21.2931 38.4814 20.2333C39.2453 19.1736 39.6273 17.9847 39.6273 16.6667V14.5833H35.4606V22.5Z" fill="white"/>
</svg>
