<svg width="51" height="50" viewBox="0 0 51 50" fill="none" xmlns="http://www.w3.org/2000/svg">
<path fill-rule="evenodd" clip-rule="evenodd" d="M29.1776 5.29591C29.3589 5.648 29.4047 6.10008 29.4943 7.00425C29.6651 8.71258 29.7505 9.56675 30.1089 10.0376C30.3321 10.3299 30.6288 10.5579 30.9687 10.6984C31.3087 10.839 31.6798 10.887 32.0443 10.8376C32.6276 10.7605 33.2943 10.2167 34.6234 9.12925C35.3255 8.55217 35.6776 8.26466 36.0547 8.14383C36.535 7.99037 37.0546 8.01627 37.5172 8.21675C37.8818 8.37508 38.2047 8.69591 38.8443 9.33758L40.7068 11.2001C41.3484 11.8417 41.6693 12.1626 41.8276 12.5272C42.0281 12.9898 42.054 13.5094 41.9005 13.9897C41.7797 14.3667 41.4922 14.7188 40.9172 15.4209C39.8276 16.7522 39.2839 17.4167 39.2047 18.0022C39.1559 18.3665 39.2044 18.7373 39.3453 19.0769C39.4862 19.4164 39.7144 19.7127 40.0068 19.9355C40.4755 20.2938 41.3318 20.3792 43.0422 20.5501C43.9443 20.6397 44.3964 20.6855 44.7505 20.8667C45.1973 21.0984 45.5451 21.484 45.7297 21.9522C45.8776 22.3209 45.8776 22.7751 45.8776 23.6834V26.3167C45.8776 27.2251 45.8776 27.6792 45.7318 28.0459C45.5466 28.5156 45.1972 28.902 44.7484 29.1334C44.3964 29.3147 43.9443 29.3605 43.0401 29.4501C41.3318 29.6209 40.4776 29.7063 40.0068 30.0647C39.7144 30.2879 39.4864 30.5846 39.3459 30.9245C39.2054 31.2645 39.1574 31.6356 39.2068 32.0001C39.2859 32.5834 39.8297 33.2501 40.9172 34.5793C41.4922 35.2813 41.7797 35.6313 41.9005 36.0105C42.054 36.4908 42.0281 37.0104 41.8276 37.473C41.6693 37.8376 41.3484 38.1584 40.7068 38.8001L38.8443 40.6605C38.2026 41.3043 37.8818 41.6251 37.5172 41.7813C37.0546 41.9818 36.535 42.0077 36.0547 41.8543C35.6776 41.7334 35.3255 41.4459 34.6234 40.8709C33.2922 39.7834 32.6276 39.2397 32.0443 39.1626C31.6798 39.1132 31.3087 39.1612 30.9687 39.3017C30.6288 39.4422 30.3321 39.6702 30.1089 39.9626C29.7505 40.4313 29.6651 41.2855 29.4943 42.9959C29.4047 43.9001 29.3589 44.3522 29.1776 44.7043C28.9467 45.1526 28.5611 45.502 28.0922 45.6876C27.7234 45.8334 27.2693 45.8334 26.3609 45.8334H23.7276C22.8193 45.8334 22.3651 45.8334 21.9984 45.6876C21.5288 45.5024 21.1423 45.153 20.9109 44.7043C20.7297 44.3522 20.6839 43.9001 20.5943 42.9959C20.4234 41.2876 20.338 40.4334 19.9797 39.9626C19.7566 39.6706 19.4603 39.4428 19.1207 39.3023C18.7812 39.1618 18.4105 39.1136 18.0464 39.1626C17.4609 39.2397 16.7964 39.7834 15.4651 40.8709C14.763 41.448 14.4109 41.7355 14.0339 41.8563C13.5536 42.0098 13.034 41.9839 12.5714 41.7834C12.2068 41.6251 11.8839 41.3042 11.2443 40.6626L9.38177 38.8001C8.7401 38.1584 8.41927 37.8376 8.26094 37.473C8.06046 37.0104 8.03456 36.4908 8.18802 36.0105C8.30885 35.6334 8.59635 35.2813 9.17135 34.5793C10.2609 33.248 10.8047 32.5834 10.8818 31.998C10.9308 31.6338 10.8826 31.2632 10.7421 30.9236C10.6016 30.5841 10.3738 30.2877 10.0818 30.0647C9.61302 29.7063 8.75677 29.6209 7.04635 29.4501C6.14427 29.3605 5.69219 29.3147 5.33802 29.1334C4.89124 28.9018 4.54343 28.5162 4.35885 28.048C4.21094 27.6793 4.21094 27.2251 4.21094 26.3167V23.6834C4.21094 22.7751 4.21094 22.3209 4.35677 21.9543C4.54195 21.4846 4.89139 21.0981 5.3401 20.8667C5.69219 20.6855 6.14427 20.6397 7.04844 20.5501C8.75677 20.3792 9.61302 20.2938 10.0818 19.9355C10.3742 19.7127 10.6024 19.4164 10.7432 19.0769C10.8841 18.7373 10.9326 18.3665 10.8839 18.0022C10.8047 17.4167 10.2589 16.7522 9.17135 15.4188C8.59635 14.7167 8.30885 14.3667 8.18802 13.9876C8.03456 13.5073 8.06046 12.9877 8.26094 12.5251C8.41927 12.1626 8.7401 11.8397 9.38177 11.198L11.2443 9.33758C11.8859 8.69591 12.2068 8.373 12.5714 8.21675C13.034 8.01627 13.5536 7.99037 14.0339 8.14383C14.4109 8.26466 14.763 8.55217 15.4651 9.12717C16.7964 10.2147 17.4609 10.7584 18.0443 10.8376C18.4093 10.8871 18.7809 10.839 19.1213 10.6981C19.4617 10.5572 19.7586 10.3285 19.9818 10.0355C20.3359 9.56675 20.4234 8.71258 20.5943 7.00217C20.6839 6.10008 20.7297 5.648 20.9109 5.29383C21.1422 4.84627 21.5278 4.49767 21.9964 4.31258C22.3651 4.16675 22.8193 4.16675 23.7276 4.16675H26.3609C27.2693 4.16675 27.7234 4.16675 28.0901 4.31258C28.5598 4.49776 28.9462 4.8472 29.1776 5.29591ZM25.0443 33.3334C27.2544 33.3334 29.374 32.4554 30.9368 30.8926C32.4996 29.3298 33.3776 27.2102 33.3776 25.0001C33.3776 22.7899 32.4996 20.6703 30.9368 19.1075C29.374 17.5447 27.2544 16.6667 25.0443 16.6667C22.8341 16.6667 20.7145 17.5447 19.1517 19.1075C17.5889 20.6703 16.7109 22.7899 16.7109 25.0001C16.7109 27.2102 17.5889 29.3298 19.1517 30.8926C20.7145 32.4554 22.8341 33.3334 25.0443 33.3334Z" fill="white"/>
</svg>
