<svg width="32" height="26" viewBox="0 0 32 26" fill="none" xmlns="http://www.w3.org/2000/svg">
<path d="M14.8571 25.2577C15.7606 25.2577 16.412 24.5931 16.412 23.7028V2.50684C16.412 1.61656 15.7606 0.872559 14.8309 0.872559C14.1794 0.872559 13.7411 1.16456 13.0366 1.82913L7.176 7.37084C7.07944 7.45154 6.95664 7.49403 6.83086 7.49027H2.88343C1.01029 7.49027 0 8.51313 0 10.5068V15.6628C0 17.6566 1.00971 18.68 2.884 18.68H6.83086C6.96343 18.68 7.08286 18.72 7.176 18.7994L13.0366 24.3937C13.6743 24.992 14.2057 25.2577 14.8571 25.2577ZM27.708 22.5468C28.2257 22.892 28.864 22.7594 29.236 22.228C30.9903 19.7823 32 16.5268 32 13.1251C32 9.7097 31.0034 6.4537 29.236 4.00856C28.8509 3.49027 28.2257 3.35713 27.708 3.70284C27.2029 4.04856 27.1229 4.69942 27.5217 5.27084C28.9703 7.39713 29.8606 10.188 29.8606 13.1246C29.8606 16.0617 28.9966 18.8788 27.508 20.9788C27.1366 21.5503 27.2029 22.2017 27.708 22.5468ZM22.4051 18.9583C22.8571 19.2777 23.508 19.1714 23.8937 18.6531C24.9303 17.2577 25.5549 15.2108 25.5549 13.1246C25.5549 11.0388 24.9171 9.00513 23.8937 7.58342C23.5086 7.06513 22.8709 6.95884 22.4051 7.2777C21.8206 7.66284 21.7537 8.34056 22.1794 8.92513C22.9503 9.9617 23.4154 11.5434 23.4154 13.1251C23.4154 14.7068 22.924 16.2874 22.1663 17.3371C21.7674 17.9086 21.8337 18.56 22.4051 18.9588" fill="black"/>
</svg>
