<svg width="37" height="37" viewBox="0 0 37 37" fill="none" xmlns="http://www.w3.org/2000/svg">
<path d="M18.496 25.1989C21.9746 25.1989 24.7946 22.3785 24.7946 18.8994C24.7946 15.4202 21.9746 12.5998 18.496 12.5998C15.0173 12.5998 12.1973 15.4202 12.1973 18.8994C12.1973 22.3785 15.0173 25.1989 18.496 25.1989Z" fill="#212121"/>
<path d="M31.9895 12.9274C30.9408 13.1572 29.8735 13.2921 28.8006 13.3306C28.1647 13.3508 27.5313 13.2411 26.9391 13.0082C26.347 12.7753 25.8086 12.424 25.3569 11.9759C24.9051 11.5278 24.5495 10.9922 24.3117 10.4019C24.074 9.81167 23.9591 9.1791 23.9741 8.54291C24.0017 7.45337 24.1306 6.36877 24.3592 5.30313C24.4471 4.90922 24.6283 4.54218 24.8876 4.23292C25.1469 3.92365 25.4766 3.68121 25.8491 3.52598C26.2216 3.37075 26.626 3.30727 27.0281 3.3409C27.4302 3.37454 27.8184 3.50429 28.16 3.71923C30.3223 5.09594 32.1635 6.92146 33.5588 9.07207C33.7854 9.41399 33.9251 9.80605 33.9657 10.2142C34.0064 10.6224 33.9469 11.0343 33.7922 11.4142C33.6376 11.7942 33.3925 12.1306 33.0784 12.3943C32.7642 12.658 32.3905 12.841 31.9895 12.9274Z" fill="#D50014"/>
<path d="M36.0784 15.0332C36.6319 17.5387 36.6405 20.134 36.1036 22.6431C36.0173 23.0393 35.8366 23.4088 35.577 23.7202C35.3174 24.0316 34.9865 24.2758 34.6123 24.432C34.2382 24.5881 33.8319 24.6517 33.428 24.6173C33.024 24.5829 32.6343 24.4514 32.292 24.2342C31.3768 23.6526 30.5167 22.9887 29.7222 22.2507C29.2579 21.8153 28.8874 21.2898 28.6332 20.7063C28.379 20.1227 28.2465 19.4934 28.2438 18.8569C28.2411 18.2204 28.3683 17.5901 28.6175 17.0044C28.8668 16.4188 29.2329 15.8901 29.6934 15.4508C30.472 14.7142 31.3152 14.0492 32.2128 13.4637C32.5549 13.2348 32.9479 13.0931 33.3574 13.0511C33.7669 13.0092 34.1804 13.0682 34.5618 13.2231C34.9432 13.3779 35.2809 13.6239 35.5453 13.9394C35.8097 14.255 35.9927 14.6305 36.0784 15.0332Z" fill="#FF862B"/>
<path d="M33.6742 28.5683C32.2977 30.731 30.4725 32.5725 28.3222 33.968C27.9791 34.1946 27.5858 34.3338 27.1765 34.3734C26.7673 34.4131 26.3546 34.3519 25.9744 34.1954C25.5942 34.0388 25.2581 33.7916 24.9954 33.4752C24.7327 33.1589 24.5515 32.783 24.4674 32.3805C24.2385 31.3326 24.1024 30.2665 24.0607 29.1947C24.0399 28.558 24.1493 27.9238 24.3822 27.331C24.6151 26.7381 24.9666 26.199 25.4151 25.7467C25.8636 25.2945 26.3997 24.9385 26.9905 24.7007C27.5814 24.4629 28.2146 24.3483 28.8513 24.3638C29.9345 24.3946 31.0127 24.5235 32.0726 24.749C32.4707 24.8335 32.8425 25.0132 33.156 25.2727C33.4696 25.5323 33.7156 25.864 33.873 26.2393C34.0305 26.6147 34.0946 27.0227 34.06 27.4283C34.0254 27.8339 33.893 28.2251 33.6742 28.5683Z" fill="#FF862B"/>
<path d="M13.0177 29.3171C12.973 30.3997 12.8284 31.4757 12.5858 32.5317C12.4948 32.9263 12.31 33.2933 12.0471 33.6013C11.7842 33.9094 11.4509 34.1495 11.0755 34.3014C10.7001 34.4533 10.2936 34.5124 9.89051 34.4738C9.4874 34.4352 9.09954 34.3 8.75978 34.0796C6.61406 32.6725 4.79511 30.8214 3.42573 28.6512C3.20453 28.3049 3.07133 27.9099 3.03774 27.5004C3.00415 27.0909 3.07119 26.6794 3.23302 26.3017C3.39484 25.9241 3.64654 25.5917 3.9662 25.3337C4.28585 25.0756 4.66375 24.8996 5.06697 24.821C6.1182 24.6055 7.18668 24.4851 8.25948 24.4611C8.8957 24.4498 9.52751 24.5685 10.1163 24.8098C10.7051 25.0511 11.2385 25.4101 11.6838 25.8646C12.1292 26.3191 12.4772 26.8597 12.7065 27.4533C12.9359 28.047 13.0417 28.6812 13.0177 29.3171Z" fill="#FFA900"/>
<path d="M7.30254 22.348C6.52376 23.0843 5.68058 23.7493 4.78308 24.335C4.44107 24.5632 4.04841 24.7042 3.63938 24.7458C3.23035 24.7873 2.81737 24.7281 2.43648 24.5733C2.05559 24.4185 1.71836 24.1728 1.45422 23.8577C1.19008 23.5426 1.00706 23.1676 0.921119 22.7655C0.367008 20.2599 0.359638 17.6643 0.899519 15.1556C0.986059 14.76 1.16667 14.3911 1.42605 14.0801C1.68542 13.7691 2.01593 13.5252 2.38956 13.3691C2.76319 13.213 3.16894 13.1493 3.57243 13.1833C3.97593 13.2173 4.36528 13.3481 4.7075 13.5646C5.62127 14.1452 6.48024 14.8079 7.27375 15.5444C7.73855 15.9799 8.10957 16.5056 8.3641 17.0895C8.61863 17.6733 8.75131 18.303 8.754 18.94C8.7567 19.5769 8.62936 20.2077 8.37978 20.7937C8.1302 21.3797 7.76363 21.9086 7.30254 22.348Z" fill="#00B598"/>
<path d="M23.8414 5.10149C23.2584 6.01669 22.5935 6.87696 21.8547 7.67171C21.4196 8.13624 20.8943 8.50712 20.311 8.76166C19.7277 9.0162 19.0986 9.14904 18.4622 9.15208C17.8258 9.15511 17.1954 9.02826 16.6097 8.77929C16.024 8.53032 15.4952 8.16447 15.0557 7.7041C14.3186 6.92602 13.6536 6.08262 13.069 5.18428C12.8416 4.84229 12.7013 4.4499 12.6602 4.04127C12.6191 3.63264 12.6784 3.22015 12.8331 2.83972C12.9879 2.45929 13.2332 2.12245 13.5478 1.85851C13.8624 1.59457 14.2367 1.41154 14.6382 1.32535C17.1432 0.769971 19.7384 0.761374 22.247 1.30015C22.6418 1.38667 23.0099 1.56691 23.3205 1.82565C23.631 2.0844 23.8747 2.41405 24.031 2.78679C24.1874 3.15953 24.2517 3.56443 24.2188 3.96729C24.1858 4.37015 24.0564 4.75916 23.8414 5.10149Z" fill="#D50014"/>
<path d="M22.4019 36.47C19.8971 37.0317 17.3006 37.0464 14.7895 36.5132C14.3901 36.4313 14.0164 36.2536 13.7007 35.9955C13.385 35.7374 13.1367 35.4065 12.9771 35.0312C12.8174 34.6559 12.7512 34.2475 12.7842 33.841C12.8171 33.4345 12.9483 33.0421 13.1663 32.6974C13.7501 31.7826 14.4137 30.9213 15.1494 30.1236C15.5848 29.6587 16.1105 29.2876 16.6943 29.0331C17.2781 28.7785 17.9077 28.6458 18.5445 28.6431C19.1814 28.6404 19.812 28.7678 20.398 29.0174C20.9839 29.267 21.5127 29.6336 21.952 30.0948C22.6879 30.873 23.3517 31.7164 23.9352 32.6146C24.1617 32.9541 24.3025 33.3436 24.3453 33.7495C24.3881 34.1554 24.3316 34.5657 24.1808 34.945C24.0299 35.3243 23.7892 35.6612 23.4793 35.9269C23.1695 36.1925 22.7997 36.3789 22.4019 36.47Z" fill="#FFA900"/>
<path d="M8.14525 13.4207C7.05602 13.391 5.97176 13.2621 4.90594 13.0355C4.50658 12.9498 4.13403 12.7683 3.82041 12.5065C3.50678 12.2448 3.26148 11.9107 3.10563 11.5331C2.94979 11.1555 2.88809 10.7457 2.92583 10.3389C2.96357 9.93214 3.09963 9.54063 3.32229 9.19815C4.70367 7.03575 6.53235 5.19454 8.68514 3.79852C9.02911 3.57737 9.42172 3.44329 9.82909 3.40783C10.2365 3.37238 10.6464 3.43663 11.0233 3.59504C11.4003 3.75344 11.7331 4.00124 11.9929 4.31703C12.2528 4.63283 12.4319 5.00712 12.5147 5.40761C12.7429 6.45311 12.8778 7.51682 12.9178 8.5862C12.939 9.2216 12.8305 9.85465 12.5989 10.4467C12.3673 11.0388 12.0176 11.5774 11.571 12.0299C11.1244 12.4823 10.5903 12.8389 10.0013 13.078C9.4123 13.3171 8.78078 13.4337 8.14525 13.4207Z" fill="#00B598"/>
</svg>
